<mxfile host="app.diagrams.net" modified="2023-03-30T15:29:52.724Z" agent="Mozilla/5.0 (Windows NT 10.0; Win64; x64) AppleWebKit/537.36 (KHTML, like Gecko) Chrome/111.0.0.0 Safari/537.36" etag="p3dgcI5s01xVGs2CRhkQ" version="21.1.2" type="device">
  <diagram name="PÃ¡gina-1" id="HpxVkagBGoYTqfylf1OI">
    <mxGraphModel dx="794" dy="470" grid="1" gridSize="10" guides="1" tooltips="1" connect="1" arrows="1" fold="1" page="1" pageScale="1" pageWidth="827" pageHeight="1169" math="0" shadow="0">
      <root>
        <mxCell id="0" />
        <mxCell id="1" parent="0" />
        <mxCell id="f1_Tublgd0NbLs64rhsr-3" value="" style="edgeStyle=orthogonalEdgeStyle;rounded=0;orthogonalLoop=1;jettySize=auto;html=1;" edge="1" parent="1" source="f1_Tublgd0NbLs64rhsr-1" target="f1_Tublgd0NbLs64rhsr-2">
          <mxGeometry relative="1" as="geometry" />
        </mxCell>
        <mxCell id="f1_Tublgd0NbLs64rhsr-1" value="inicio" style="ellipse;whiteSpace=wrap;html=1;fillColor=#e1d5e7;strokeColor=#9673a6;" vertex="1" parent="1">
          <mxGeometry x="354" y="60" width="120" height="80" as="geometry" />
        </mxCell>
        <mxCell id="f1_Tublgd0NbLs64rhsr-5" value="" style="edgeStyle=orthogonalEdgeStyle;rounded=0;orthogonalLoop=1;jettySize=auto;html=1;" edge="1" parent="1" source="f1_Tublgd0NbLs64rhsr-2" target="f1_Tublgd0NbLs64rhsr-4">
          <mxGeometry relative="1" as="geometry" />
        </mxCell>
        <mxCell id="f1_Tublgd0NbLs64rhsr-2" value="real, dolar, cotacao" style="shape=parallelogram;perimeter=parallelogramPerimeter;whiteSpace=wrap;html=1;fixedSize=1;fillColor=#ffe6cc;strokeColor=#d79b00;" vertex="1" parent="1">
          <mxGeometry x="354" y="230" width="120" height="60" as="geometry" />
        </mxCell>
        <mxCell id="f1_Tublgd0NbLs64rhsr-7" value="" style="edgeStyle=orthogonalEdgeStyle;rounded=0;orthogonalLoop=1;jettySize=auto;html=1;" edge="1" parent="1" source="f1_Tublgd0NbLs64rhsr-4">
          <mxGeometry relative="1" as="geometry">
            <mxPoint x="414" y="510" as="targetPoint" />
          </mxGeometry>
        </mxCell>
        <mxCell id="f1_Tublgd0NbLs64rhsr-4" value="dolar= real/cotacao" style="whiteSpace=wrap;html=1;fillColor=#d5e8d4;strokeColor=#82b366;" vertex="1" parent="1">
          <mxGeometry x="354" y="370" width="120" height="60" as="geometry" />
        </mxCell>
        <mxCell id="f1_Tublgd0NbLs64rhsr-14" value="" style="edgeStyle=orthogonalEdgeStyle;rounded=0;orthogonalLoop=1;jettySize=auto;html=1;" edge="1" parent="1" source="f1_Tublgd0NbLs64rhsr-8" target="f1_Tublgd0NbLs64rhsr-12">
          <mxGeometry relative="1" as="geometry" />
        </mxCell>
        <mxCell id="f1_Tublgd0NbLs64rhsr-8" value="real virando dolar" style="shape=document;whiteSpace=wrap;html=1;boundedLbl=1;fillColor=#f8cecc;strokeColor=#b85450;" vertex="1" parent="1">
          <mxGeometry x="354" y="510" width="120" height="80" as="geometry" />
        </mxCell>
        <mxCell id="f1_Tublgd0NbLs64rhsr-12" value="fim" style="ellipse;whiteSpace=wrap;html=1;fillColor=#e1d5e7;strokeColor=#9673a6;" vertex="1" parent="1">
          <mxGeometry x="354" y="640" width="120" height="80" as="geometry" />
        </mxCell>
      </root>
    </mxGraphModel>
  </diagram>
</mxfile>
